<svg width="20" height="20" viewBox="0 0 29 30" fill="none" xmlns="http://www.w3.org/2000/svg">
    <path d="M10.2595 27.846V23.4503C10.2595 22.3281 11.1758 21.4185 12.3061 21.4185H16.4379C16.9807 21.4185 17.5013 21.6326 17.8851 22.0136C18.2689 22.3946 18.4846 22.9114 18.4846 23.4503V27.846C18.4811 28.3125 18.6654 28.7611 18.9965 29.0921C19.3276 29.4232 19.7781 29.6094 20.248 29.6094H23.0669C24.3835 29.6128 25.6473 29.096 26.5794 28.173C27.5116 27.25 28.0355 25.9967 28.0355 24.6897V12.167C28.0355 11.1113 27.564 10.1098 26.7483 9.43248L17.1588 1.8294C15.4906 0.496325 13.1006 0.539367 11.4823 1.93163L2.11159 9.43248C1.25728 10.0899 0.746668 11.0943 0.721436 12.167V24.677C0.721436 27.4011 2.94592 29.6094 5.68996 29.6094H8.44453C9.42056 29.6094 10.2138 28.8277 10.2208 27.8588L10.2595 27.846Z"
          fill="currentColor"/>
</svg>
