<svg width="20" height="20" viewBox="0 0 30 29" fill="none" xmlns="http://www.w3.org/2000/svg">
    <path d="M13.6491 0.24585C17.218 0.24585 20.1287 3.10663 20.1287 6.62871V13.5147H11.3528C10.7238 13.5147 10.2265 14.0035 10.2265 14.6217C10.2265 15.2254 10.7238 15.7286 11.3528 15.7286H20.1287V22.6002C20.1287 26.1223 17.218 28.9975 13.6199 28.9975H6.49675C2.91325 28.9975 0.00256348 26.1367 0.00256348 22.6146V6.64308C0.00256348 3.10663 2.92787 0.24585 6.51138 0.24585H13.6491ZM23.7804 9.66229C24.2117 9.21664 24.9161 9.21664 25.3474 9.64791L29.5451 13.8313C29.7608 14.0469 29.8758 14.3201 29.8758 14.6219C29.8758 14.9095 29.7608 15.197 29.5451 15.3982L25.3474 19.5816C25.1318 19.7972 24.8442 19.9122 24.5711 19.9122C24.2836 19.9122 23.9961 19.7972 23.7804 19.5816C23.3492 19.1503 23.3492 18.4459 23.7804 18.0146L26.0806 15.7289H20.129V13.515H26.0806L23.7804 11.2293C23.3492 10.798 23.3492 10.0936 23.7804 9.66229Z"
          fill="currentColor"/>
</svg>
