<svg xmlns="http://www.w3.org/2000/svg"
     viewBox="0 0 506 439"
     width="506"
     height="439">
<g fill="None" fill-opacity="0.0" stroke="#FFF" stroke-opacity="1.00" stroke-width="0.3"><path d="
M 0.00 439.00 
L 506.00 439.00
L 506.00 0.00
L 0.00 0.00
L 0.00 439.00
M 10.00 388.00 
C 5.55 373.94 10.21 356.30 9.00 341.00 C 7.79 325.70 9.23 308.48 9.00 293.00 C 8.77 277.52 8.41 260.31 9.00 245.00 C 9.59 229.69 7.20 211.68 9.00 197.00 C 10.80 182.32 3.86 162.90 11.00 151.00
C 16.58 141.69 27.83 146.70 39.00 146.00 C 50.17 145.30 43.65 129.94 46.78 120.78 C 49.90 111.62 65.30 114.00 73.00 114.00
C 76.77 113.63 81.29 113.64 85.00 114.00
C 123.40 114.00 159.83 124.75 193.00 142.00
C 169.29 108.51 167.78 59.35 199.25 30.25 C 230.72 1.15 277.14 1.01 308.75 30.25 C 340.36 59.49 336.65 109.00 313.00 142.00
C 323.44 139.10 330.47 132.69 341.08 129.08 C 351.68 125.46 361.04 121.97 372.67 119.67 C 384.31 117.37 395.21 114.92 408.07 114.07 C 420.93 113.23 435.08 114.03 449.00 114.00 C 462.92 113.97 460.42 135.05 460.00 145.00
C 475.93 144.93 498.98 141.81 497.00 162.00 C 495.02 182.19 497.75 196.84 497.00 216.00 C 496.25 235.16 497.03 251.08 497.00 270.00 C 496.97 288.92 496.32 304.72 497.00 324.00 C 497.68 343.28 495.15 357.50 497.00 378.00 C 498.85 398.50 476.67 395.89 460.00 395.00 C 443.33 394.11 423.23 395.30 407.00 396.00 C 390.77 396.70 374.09 398.97 358.98 401.98 C 343.86 404.98 329.22 407.10 315.32 412.32 C 301.42 417.55 288.86 419.94 275.98 426.98 C 263.09 434.01 250.84 440.13 237.77 431.23 C 224.70 422.33 213.14 421.84 199.32 415.68 C 185.51 409.51 171.80 408.08 156.99 404.01 C 142.18 399.93 125.73 399.32 110.00 397.00 C 94.26 394.68 74.12 396.06 58.00 395.00 C 41.88 393.94 19.44 400.82 10.00 388.00 Z"/>
</g>
<g fill="None" fill-opacity="0.0" stroke="#EF5B36" stroke-opacity="1.00" stroke-width="0.3"><path d="
M 85.00 114.00
C 81.00 114.00 77.00 114.00 73.00 114.00
C 65.30 114.00 49.90 111.62 46.78 120.78 C 43.65 129.94 50.17 145.30 39.00 146.00 C 27.83 146.70 16.58 141.69 11.00 151.00
C 5.40 164.60 11.73 182.03 10.00 197.00 C 8.27 211.97 10.59 229.59 10.00 245.00 C 9.41 260.41 9.78 276.40 10.00 292.00 C 10.22 307.60 8.89 324.39 10.00 340.00 C 11.11 355.61 7.25 372.64 10.00 388.00
C 19.44 400.82 41.88 393.94 58.00 395.00 C 74.12 396.06 94.26 394.68 110.00 397.00 C 125.73 399.32 142.18 399.93 156.99 404.01 C 171.80 408.08 185.51 409.51 199.32 415.68 C 213.14 421.84 224.70 422.33 237.77 431.23 C 250.84 440.13 263.09 434.01 275.98 426.98 C 288.86 419.94 301.42 417.55 315.32 412.32 C 329.22 407.10 343.86 404.98 358.98 401.98 C 374.09 398.97 390.77 396.70 407.00 396.00 C 423.23 395.30 443.33 394.11 460.00 395.00 C 476.67 395.89 498.85 398.50 497.00 378.00 C 495.15 357.50 497.68 343.28 497.00 324.00 C 496.32 304.72 496.97 288.92 497.00 270.00 C 497.03 251.08 496.25 235.16 497.00 216.00 C 497.75 196.84 495.02 182.19 497.00 162.00 C 498.98 141.81 475.93 144.93 460.00 145.00
C 460.42 135.05 462.92 113.97 449.00 114.00 C 435.08 114.03 420.93 113.23 408.07 114.07 C 395.21 114.92 384.31 117.37 372.67 119.67 C 361.04 121.97 351.68 125.46 341.08 129.08 C 330.47 132.69 323.44 139.10 313.00 142.00
C 336.65 109.00 340.36 59.49 308.75 30.25 C 277.14 1.01 230.72 1.15 199.25 30.25 C 167.78 59.35 169.29 108.51 193.00 142.00
C 159.83 124.75 123.40 114.00 85.00 114.00
M 260.00 50.00
C 286.54 54.31 300.32 89.67 283.08 110.08 C 265.84 130.49 231.16 129.31 219.08 102.92 C 206.99 76.53 229.41 45.03 260.00 50.00
M 111.00 132.00
C 130.89 133.92 155.25 141.68 173.08 150.92 C 190.90 160.17 208.34 167.19 219.92 185.08 C 231.50 202.96 246.16 216.89 245.00 241.00 C 243.84 265.11 245.81 296.64 245.00 322.00 C 244.19 347.36 246.44 376.78 244.00 402.00
C 195.15 356.35 129.85 333.40 63.00 338.00
C 63.13 336.40 59.76 327.99 61.00 322.00 C 62.24 316.01 60.44 307.53 61.00 301.00 C 61.56 294.47 60.75 286.76 61.00 280.00 C 61.25 273.24 60.89 265.83 61.00 259.00 C 61.11 252.17 60.96 245.89 61.00 239.00 C 61.04 232.11 61.01 224.98 61.00 218.00 C 60.99 211.02 61.06 204.06 61.00 197.00 C 60.94 189.94 61.16 183.18 61.00 176.00 C 60.84 168.82 61.39 163.55 61.00 156.00 C 60.61 148.45 61.83 143.31 61.00 135.00 C 60.17 126.69 69.77 129.71 76.00 129.00 C 82.23 128.29 90.21 130.45 96.00 130.00 C 101.79 129.55 111.41 132.15 111.00 132.00
M 443.00 338.00
C 374.91 332.40 312.27 358.61 262.00 401.00
C 261.92 388.25 262.10 375.78 262.00 363.00 C 261.90 350.22 262.19 336.76 262.00 324.00 C 261.81 311.24 262.41 297.59 262.00 285.00 C 261.59 272.41 262.90 258.15 262.00 246.00 C 261.10 233.85 262.09 222.47 268.77 213.77 C 275.45 205.07 277.73 198.65 283.30 190.30 C 288.87 181.95 292.80 174.91 301.25 169.25 C 309.70 163.58 315.86 158.46 325.23 154.23 C 334.60 149.99 342.10 145.59 352.22 142.22 C 362.34 138.86 371.82 136.14 383.02 134.02 C 394.23 131.90 406.51 131.23 419.00 131.00 C 431.49 130.77 445.85 128.08 443.00 143.00 C 440.15 157.92 444.29 168.13 443.00 182.00 C 441.71 195.87 443.58 207.61 443.00 221.00 C 442.42 234.39 443.27 246.82 443.00 260.00 C 442.73 273.18 443.14 285.90 443.00 299.00 C 442.86 312.10 443.11 324.93 443.00 338.00 Z"/>
</g>
<g fill="None" fill-opacity="0.0" stroke="#FFF" stroke-opacity="1.00" stroke-width="0.3"><path d="
M 260.00 50.00
C 229.41 45.03 206.99 76.53 219.08 102.92 C 231.16 129.31 265.84 130.49 283.08 110.08 C 300.32 89.67 286.54 54.31 260.00 50.00 Z"/>
</g>
<g fill="None" fill-opacity="0.0" stroke="#FFF" stroke-opacity="1.00" stroke-width="0.3"><path d="
M 73.00 114.00
C 77.00 114.00 81.00 114.00 85.00 114.00
C 81.29 113.64 76.77 113.63 73.00 114.00 Z"/>
</g>
<g fill="None" fill-opacity="0.0" stroke="#FFF" stroke-opacity="1.00" stroke-width="0.3"><path d="
M 63.00 338.00
C 62.13 337.30 62.15 337.21 62.00 336.00
C 61.09 328.63 62.38 321.49 62.00 314.00 C 61.62 306.51 62.16 298.57 62.00 291.00 C 61.84 283.43 62.05 275.60 62.00 268.00 C 61.95 260.40 61.98 252.58 62.00 245.00 C 62.02 237.42 61.89 229.50 62.00 222.00 C 62.11 214.50 61.73 206.31 62.00 199.00 C 62.27 191.69 61.40 182.88 62.00 176.00 C 62.60 169.12 60.66 158.92 62.00 153.00 C 63.34 147.08 58.56 134.11 63.00 131.00
C 66.43 128.60 74.55 131.84 79.00 131.00 C 83.45 130.16 90.13 130.85 95.00 131.00 C 99.87 131.15 105.93 131.51 111.00 132.00
C 111.41 132.15 101.79 129.55 96.00 130.00 C 90.21 130.45 82.23 128.29 76.00 129.00 C 69.77 129.71 60.17 126.69 61.00 135.00 C 61.83 143.31 60.61 148.45 61.00 156.00 C 61.39 163.55 60.84 168.82 61.00 176.00 C 61.16 183.18 60.94 189.94 61.00 197.00 C 61.06 204.06 60.99 211.02 61.00 218.00 C 61.01 224.98 61.04 232.11 61.00 239.00 C 60.96 245.89 61.11 252.17 61.00 259.00 C 60.89 265.83 61.25 273.24 61.00 280.00 C 60.75 286.76 61.56 294.47 61.00 301.00 C 60.44 307.53 62.24 316.01 61.00 322.00 C 59.76 327.99 63.13 336.40 63.00 338.00 Z"/>
</g>
<g fill="None" fill-opacity="0.0" stroke="#FFF" stroke-opacity="1.00" stroke-width="0.3"><path d="
M 62.00 336.00
C 68.63 268.99 59.11 198.86 63.00 131.00
C 58.56 134.11 63.34 147.08 62.00 153.00 C 60.66 158.92 62.60 169.12 62.00 176.00 C 61.40 182.88 62.27 191.69 62.00 199.00 C 61.73 206.31 62.11 214.50 62.00 222.00 C 61.89 229.50 62.02 237.42 62.00 245.00 C 61.98 252.58 61.95 260.40 62.00 268.00 C 62.05 275.60 61.84 283.43 62.00 291.00 C 62.16 298.57 61.62 306.51 62.00 314.00 C 62.38 321.49 61.09 328.63 62.00 336.00 Z"/>
</g>
<g fill="None" fill-opacity="0.0" stroke="#FFF" stroke-opacity="1.00" stroke-width="0.3"><path d="
M 62.00 336.00
C 62.15 337.21 62.13 337.30 63.00 338.00
C 129.85 333.40 195.15 356.35 244.00 402.00
C 246.44 376.78 244.19 347.36 245.00 322.00 C 245.81 296.64 243.84 265.11 245.00 241.00 C 246.16 216.89 231.50 202.96 219.92 185.08 C 208.34 167.19 190.90 160.17 173.08 150.92 C 155.25 141.68 130.89 133.92 111.00 132.00
C 105.93 131.51 99.87 131.15 95.00 131.00 C 90.13 130.85 83.45 130.16 79.00 131.00 C 74.55 131.84 66.43 128.60 63.00 131.00
C 59.11 198.86 68.63 268.99 62.00 336.00 Z"/>
</g>
<g fill="None" fill-opacity="0.0" stroke="#FFF" stroke-opacity="1.00" stroke-width="0.3"><path d="
M 443.00 338.00
C 443.11 324.93 442.86 312.10 443.00 299.00 C 443.14 285.90 442.73 273.18 443.00 260.00 C 443.27 246.82 442.42 234.39 443.00 221.00 C 443.58 207.61 441.71 195.87 443.00 182.00 C 444.29 168.13 440.15 157.92 443.00 143.00 C 445.85 128.08 431.49 130.77 419.00 131.00 C 406.51 131.23 394.23 131.90 383.02 134.02 C 371.82 136.14 362.34 138.86 352.22 142.22 C 342.10 145.59 334.60 149.99 325.23 154.23 C 315.86 158.46 309.70 163.58 301.25 169.25 C 292.80 174.91 288.87 181.95 283.30 190.30 C 277.73 198.65 275.45 205.07 268.77 213.77 C 262.09 222.47 261.10 233.85 262.00 246.00 C 262.90 258.15 261.59 272.41 262.00 285.00 C 262.41 297.59 261.81 311.24 262.00 324.00 C 262.19 336.76 261.90 350.22 262.00 363.00 C 262.10 375.78 261.92 388.25 262.00 401.00
C 312.27 358.61 374.91 332.40 443.00 338.00 Z"/>
</g>
<g fill="None" fill-opacity="0.0" stroke="#FFF" stroke-opacity="1.00" stroke-width="0.3"><path d="
M 10.00 388.00
C 7.25 372.64 11.11 355.61 10.00 340.00 C 8.89 324.39 10.22 307.60 10.00 292.00 C 9.78 276.40 9.41 260.41 10.00 245.00 C 10.59 229.59 8.27 211.97 10.00 197.00 C 11.73 182.03 5.40 164.60 11.00 151.00
C 3.86 162.90 10.80 182.32 9.00 197.00 C 7.20 211.68 9.59 229.69 9.00 245.00 C 8.41 260.31 8.77 277.52 9.00 293.00 C 9.23 308.48 7.79 325.70 9.00 341.00 C 10.21 356.30 5.55 373.94 10.00 388.00 Z"/>
</g>
<g fill="#FFF" fill-opacity="1.00" stroke="None">
<path d="
M 0.00 439.00
L 506.00 439.00
L 506.00 0.00
L 0.00 0.00
L 0.00 439.00
M 10.00 388.00
C 5.55 373.94 10.21 356.30 9.00 341.00 C 7.79 325.70 9.23 308.48 9.00 293.00 C 8.77 277.52 8.41 260.31 9.00 245.00 C 9.59 229.69 7.20 211.68 9.00 197.00 C 10.80 182.32 3.86 162.90 11.00 151.00
C 16.58 141.69 27.83 146.70 39.00 146.00 C 50.17 145.30 43.65 129.94 46.78 120.78 C 49.90 111.62 65.30 114.00 73.00 114.00
C 76.77 113.63 81.29 113.64 85.00 114.00
C 123.40 114.00 159.83 124.75 193.00 142.00
C 169.29 108.51 167.78 59.35 199.25 30.25 C 230.72 1.15 277.14 1.01 308.75 30.25 C 340.36 59.49 336.65 109.00 313.00 142.00
C 323.44 139.10 330.47 132.69 341.08 129.08 C 351.68 125.46 361.04 121.97 372.67 119.67 C 384.31 117.37 395.21 114.92 408.07 114.07 C 420.93 113.23 435.08 114.03 449.00 114.00 C 462.92 113.97 460.42 135.05 460.00 145.00
C 475.93 144.93 498.98 141.81 497.00 162.00 C 495.02 182.19 497.75 196.84 497.00 216.00 C 496.25 235.16 497.03 251.08 497.00 270.00 C 496.97 288.92 496.32 304.72 497.00 324.00 C 497.68 343.28 495.15 357.50 497.00 378.00 C 498.85 398.50 476.67 395.89 460.00 395.00 C 443.33 394.11 423.23 395.30 407.00 396.00 C 390.77 396.70 374.09 398.97 358.98 401.98 C 343.86 404.98 329.22 407.10 315.32 412.32 C 301.42 417.55 288.86 419.94 275.98 426.98 C 263.09 434.01 250.84 440.13 237.77 431.23 C 224.70 422.33 213.14 421.84 199.32 415.68 C 185.51 409.51 171.80 408.08 156.99 404.01 C 142.18 399.93 125.73 399.32 110.00 397.00 C 94.26 394.68 74.12 396.06 58.00 395.00 C 41.88 393.94 19.44 400.82 10.00 388.00 Z"/>
</g>
<g fill="#EF5B36" fill-opacity="1.00" stroke="None">
<path d="
M 85.00 114.00 
C 81.00 114.00 77.00 114.00 73.00 114.00
C 65.30 114.00 49.90 111.62 46.78 120.78 C 43.65 129.94 50.17 145.30 39.00 146.00 C 27.83 146.70 16.58 141.69 11.00 151.00
C 5.40 164.60 11.73 182.03 10.00 197.00 C 8.27 211.97 10.59 229.59 10.00 245.00 C 9.41 260.41 9.78 276.40 10.00 292.00 C 10.22 307.60 8.89 324.39 10.00 340.00 C 11.11 355.61 7.25 372.64 10.00 388.00
C 19.44 400.82 41.88 393.94 58.00 395.00 C 74.12 396.06 94.26 394.68 110.00 397.00 C 125.73 399.32 142.18 399.93 156.99 404.01 C 171.80 408.08 185.51 409.51 199.32 415.68 C 213.14 421.84 224.70 422.33 237.77 431.23 C 250.84 440.13 263.09 434.01 275.98 426.98 C 288.86 419.94 301.42 417.55 315.32 412.32 C 329.22 407.10 343.86 404.98 358.98 401.98 C 374.09 398.97 390.77 396.70 407.00 396.00 C 423.23 395.30 443.33 394.11 460.00 395.00 C 476.67 395.89 498.85 398.50 497.00 378.00 C 495.15 357.50 497.68 343.28 497.00 324.00 C 496.32 304.72 496.97 288.92 497.00 270.00 C 497.03 251.08 496.25 235.16 497.00 216.00 C 497.75 196.84 495.02 182.19 497.00 162.00 C 498.98 141.81 475.93 144.93 460.00 145.00
C 460.42 135.05 462.92 113.97 449.00 114.00 C 435.08 114.03 420.93 113.23 408.07 114.07 C 395.21 114.92 384.31 117.37 372.67 119.67 C 361.04 121.97 351.68 125.46 341.08 129.08 C 330.47 132.69 323.44 139.10 313.00 142.00
C 336.65 109.00 340.36 59.49 308.75 30.25 C 277.14 1.01 230.72 1.15 199.25 30.25 C 167.78 59.35 169.29 108.51 193.00 142.00
C 159.83 124.75 123.40 114.00 85.00 114.00
M 260.00 50.00 
C 286.54 54.31 300.32 89.67 283.08 110.08 C 265.84 130.49 231.16 129.31 219.08 102.92 C 206.99 76.53 229.41 45.03 260.00 50.00
M 111.00 132.00 
C 130.89 133.92 155.25 141.68 173.08 150.92 C 190.90 160.17 208.34 167.19 219.92 185.08 C 231.50 202.96 246.16 216.89 245.00 241.00 C 243.84 265.11 245.81 296.64 245.00 322.00 C 244.19 347.36 246.44 376.78 244.00 402.00
C 195.15 356.35 129.85 333.40 63.00 338.00
C 63.13 336.40 59.76 327.99 61.00 322.00 C 62.24 316.01 60.44 307.53 61.00 301.00 C 61.56 294.47 60.75 286.76 61.00 280.00 C 61.25 273.24 60.89 265.83 61.00 259.00 C 61.11 252.17 60.96 245.89 61.00 239.00 C 61.04 232.11 61.01 224.98 61.00 218.00 C 60.99 211.02 61.06 204.06 61.00 197.00 C 60.94 189.94 61.16 183.18 61.00 176.00 C 60.84 168.82 61.39 163.55 61.00 156.00 C 60.61 148.45 61.83 143.31 61.00 135.00 C 60.17 126.69 69.77 129.71 76.00 129.00 C 82.23 128.29 90.21 130.45 96.00 130.00 C 101.79 129.55 111.41 132.15 111.00 132.00
M 443.00 338.00 
C 374.91 332.40 312.27 358.61 262.00 401.00
C 261.92 388.25 262.10 375.78 262.00 363.00 C 261.90 350.22 262.19 336.76 262.00 324.00 C 261.81 311.24 262.41 297.59 262.00 285.00 C 261.59 272.41 262.90 258.15 262.00 246.00 C 261.10 233.85 262.09 222.47 268.77 213.77 C 275.45 205.07 277.73 198.65 283.30 190.30 C 288.87 181.95 292.80 174.91 301.25 169.25 C 309.70 163.58 315.86 158.46 325.23 154.23 C 334.60 149.99 342.10 145.59 352.22 142.22 C 362.34 138.86 371.82 136.14 383.02 134.02 C 394.23 131.90 406.51 131.23 419.00 131.00 C 431.49 130.77 445.85 128.08 443.00 143.00 C 440.15 157.92 444.29 168.13 443.00 182.00 C 441.71 195.87 443.58 207.61 443.00 221.00 C 442.42 234.39 443.27 246.82 443.00 260.00 C 442.73 273.18 443.14 285.90 443.00 299.00 C 442.86 312.10 443.11 324.93 443.00 338.00 Z"/>
</g>
<g fill="#FFF" fill-opacity="1.00" stroke="None">
<path d="
M 260.00 50.00 
C 229.41 45.03 206.99 76.53 219.08 102.92 C 231.16 129.31 265.84 130.49 283.08 110.08 C 300.32 89.67 286.54 54.31 260.00 50.00 Z"/>
</g>
<g fill="#FFF" fill-opacity="1.00" stroke="None">
<path d="
M 73.00 114.00 
C 77.00 114.00 81.00 114.00 85.00 114.00
C 81.29 113.64 76.77 113.63 73.00 114.00 Z"/>
</g>
<g fill="#FFF" fill-opacity="1.00" stroke="None">
<path d="
M 63.00 338.00 
C 62.13 337.30 62.15 337.21 62.00 336.00
C 61.09 328.63 62.38 321.49 62.00 314.00 C 61.62 306.51 62.16 298.57 62.00 291.00 C 61.84 283.43 62.05 275.60 62.00 268.00 C 61.95 260.40 61.98 252.58 62.00 245.00 C 62.02 237.42 61.89 229.50 62.00 222.00 C 62.11 214.50 61.73 206.31 62.00 199.00 C 62.27 191.69 61.40 182.88 62.00 176.00 C 62.60 169.12 60.66 158.92 62.00 153.00 C 63.34 147.08 58.56 134.11 63.00 131.00
C 66.43 128.60 74.55 131.84 79.00 131.00 C 83.45 130.16 90.13 130.85 95.00 131.00 C 99.87 131.15 105.93 131.51 111.00 132.00
C 111.41 132.15 101.79 129.55 96.00 130.00 C 90.21 130.45 82.23 128.29 76.00 129.00 C 69.77 129.71 60.17 126.69 61.00 135.00 C 61.83 143.31 60.61 148.45 61.00 156.00 C 61.39 163.55 60.84 168.82 61.00 176.00 C 61.16 183.18 60.94 189.94 61.00 197.00 C 61.06 204.06 60.99 211.02 61.00 218.00 C 61.01 224.98 61.04 232.11 61.00 239.00 C 60.96 245.89 61.11 252.17 61.00 259.00 C 60.89 265.83 61.25 273.24 61.00 280.00 C 60.75 286.76 61.56 294.47 61.00 301.00 C 60.44 307.53 62.24 316.01 61.00 322.00 C 59.76 327.99 63.13 336.40 63.00 338.00 Z"/>
</g>
<g fill="#FFF" fill-opacity="1.00" stroke="None">
<path d="
M 62.00 336.00 
C 68.63 268.99 59.11 198.86 63.00 131.00
C 58.56 134.11 63.34 147.08 62.00 153.00 C 60.66 158.92 62.60 169.12 62.00 176.00 C 61.40 182.88 62.27 191.69 62.00 199.00 C 61.73 206.31 62.11 214.50 62.00 222.00 C 61.89 229.50 62.02 237.42 62.00 245.00 C 61.98 252.58 61.95 260.40 62.00 268.00 C 62.05 275.60 61.84 283.43 62.00 291.00 C 62.16 298.57 61.62 306.51 62.00 314.00 C 62.38 321.49 61.09 328.63 62.00 336.00 Z"/>
</g>
<g fill="#FFF" fill-opacity="1.00" stroke="None">
<path d="
M 62.00 336.00 
C 62.15 337.21 62.13 337.30 63.00 338.00
C 129.85 333.40 195.15 356.35 244.00 402.00
C 246.44 376.78 244.19 347.36 245.00 322.00 C 245.81 296.64 243.84 265.11 245.00 241.00 C 246.16 216.89 231.50 202.96 219.92 185.08 C 208.34 167.19 190.90 160.17 173.08 150.92 C 155.25 141.68 130.89 133.92 111.00 132.00
C 105.93 131.51 99.87 131.15 95.00 131.00 C 90.13 130.85 83.45 130.16 79.00 131.00 C 74.55 131.84 66.43 128.60 63.00 131.00
C 59.11 198.86 68.63 268.99 62.00 336.00 Z"/>
</g>
<g fill="#FFF" fill-opacity="1.00" stroke="None">
<path d="
M 443.00 338.00 
C 443.11 324.93 442.86 312.10 443.00 299.00 C 443.14 285.90 442.73 273.18 443.00 260.00 C 443.27 246.82 442.42 234.39 443.00 221.00 C 443.58 207.61 441.71 195.87 443.00 182.00 C 444.29 168.13 440.15 157.92 443.00 143.00 C 445.85 128.08 431.49 130.77 419.00 131.00 C 406.51 131.23 394.23 131.90 383.02 134.02 C 371.82 136.14 362.34 138.86 352.22 142.22 C 342.10 145.59 334.60 149.99 325.23 154.23 C 315.86 158.46 309.70 163.58 301.25 169.25 C 292.80 174.91 288.87 181.95 283.30 190.30 C 277.73 198.65 275.45 205.07 268.77 213.77 C 262.09 222.47 261.10 233.85 262.00 246.00 C 262.90 258.15 261.59 272.41 262.00 285.00 C 262.41 297.59 261.81 311.24 262.00 324.00 C 262.19 336.76 261.90 350.22 262.00 363.00 C 262.10 375.78 261.92 388.25 262.00 401.00
C 312.27 358.61 374.91 332.40 443.00 338.00 Z"/>
</g>
<g fill="#FFF" fill-opacity="1.00" stroke="None">
<path d="
M 10.00 388.00 
C 7.25 372.64 11.11 355.61 10.00 340.00 C 8.89 324.39 10.22 307.60 10.00 292.00 C 9.78 276.40 9.41 260.41 10.00 245.00 C 10.59 229.59 8.27 211.97 10.00 197.00 C 11.73 182.03 5.40 164.60 11.00 151.00
C 3.86 162.90 10.80 182.32 9.00 197.00 C 7.20 211.68 9.59 229.69 9.00 245.00 C 8.41 260.31 8.77 277.52 9.00 293.00 C 9.23 308.48 7.79 325.70 9.00 341.00 C 10.21 356.30 5.55 373.94 10.00 388.00 Z"/>
</g>
</svg>